<svg width="41" height="41" viewBox="0 0 41 41" fill="none" xmlns="http://www.w3.org/2000/svg">
<path d="M18.2048 2.07396C19.446 1.35395 20.9778 1.35395 22.219 2.07396L28.8619 5.92743L35.5206 9.75362C36.7647 10.4685 37.5306 11.7951 37.5277 13.23L37.5119 20.9097L37.5277 28.5893C37.5306 30.0242 36.7647 31.3508 35.5206 32.0657L28.8619 35.8919L22.219 39.7454C20.9778 40.4654 19.446 40.4654 18.2048 39.7454L11.5619 35.8919L4.90326 32.0657C3.65911 31.3508 2.89322 30.0242 2.89616 28.5893L2.91191 20.9097L2.89616 13.23C2.89322 11.7951 3.65911 10.4685 4.90326 9.75362L11.5619 5.92743L18.2048 2.07396Z" fill="#F6B191"/>
<g clip-path="url(#clip0_509_2030)">
<path d="M20.2119 15.9097L23.5452 20.9097L27.7119 17.5763L26.0452 25.9097H14.3786L12.7119 17.5763L16.8786 20.9097L20.2119 15.9097Z" fill="white" stroke="white" stroke-width="1.5" stroke-linecap="round" stroke-linejoin="round"/>
</g>
<defs>
<clipPath id="clip0_509_2030">
<rect width="20" height="20" fill="white" transform="translate(10.2119 10.9097)"/>
</clipPath>
</defs>
</svg>
