<svg width="88" height="88" viewBox="0 0 88 88" fill="none" xmlns="http://www.w3.org/2000/svg">
<path d="M41.9929 1.16429C43.2341 0.444285 44.7659 0.444285 46.0071 1.16429L63.03 11.0391L80.0933 20.8439C81.3374 21.5589 82.1033 22.8854 82.1004 24.3203L82.06 44L82.1004 63.6797C82.1033 65.1146 81.3374 66.4411 80.0933 67.1561L63.03 76.9609L46.0071 86.8357C44.7659 87.5557 43.2341 87.5557 41.9929 86.8357L24.97 76.9609L7.90674 67.1561C6.66259 66.4411 5.8967 65.1146 5.89964 63.6797L5.94 44L5.89964 24.3203C5.8967 22.8854 6.66259 21.5589 7.90674 20.8439L24.97 11.0391L41.9929 1.16429Z" fill="#FFD54B"/>
<g clip-path="url(#clip0_509_3393)">
<path d="M44 33L51.3333 44L60.5 36.6667L56.8333 55H31.1667L27.5 36.6667L36.6667 44L44 33Z" fill="white" stroke="white" stroke-width="1.5" stroke-linecap="round" stroke-linejoin="round"/>
</g>
<defs>
<clipPath id="clip0_509_3393">
<rect width="44" height="44" fill="white" transform="translate(22 22)"/>
</clipPath>
</defs>
</svg>
