<svg width="41" height="40" viewBox="0 0 41 40" fill="none" xmlns="http://www.w3.org/2000/svg">
<path d="M18.1057 1.16429C19.3469 0.444284 20.8787 0.444285 22.1199 1.16429L28.7628 5.01776L35.4214 8.84395C36.6656 9.55886 37.4315 10.8854 37.4285 12.3203L37.4128 20L37.4285 27.6797C37.4315 29.1146 36.6656 30.4411 35.4214 31.1561L28.7628 34.9822L22.1199 38.8357C20.8787 39.5557 19.3469 39.5557 18.1057 38.8357L11.4628 34.9822L4.80414 31.1561C3.55999 30.4411 2.7941 29.1146 2.79704 27.6797L2.81279 20L2.79704 12.3203C2.7941 10.8854 3.55999 9.55886 4.80414 8.84395L11.4628 5.01776L18.1057 1.16429Z" fill="#E1E1E2"/>
<g clip-path="url(#clip0_509_2029)">
<path d="M20.1128 15L23.4461 20L27.6128 16.6667L25.9461 25H14.2795L12.6128 16.6667L16.7795 20L20.1128 15Z" fill="white" stroke="white" stroke-width="1.5" stroke-linecap="round" stroke-linejoin="round"/>
</g>
<defs>
<clipPath id="clip0_509_2029">
<rect width="20" height="20" fill="white" transform="translate(10.1128 10)"/>
</clipPath>
</defs>
</svg>
